<?xml version="1.0" encoding="UTF-8" standalone="no"?>
<!-- Created with Inkscape (http://www.inkscape.org/) -->

<svg
   xmlns:dc="http://purl.org/dc/elements/1.1/"
   xmlns:cc="http://creativecommons.org/ns#"
   xmlns:rdf="http://www.w3.org/1999/02/22-rdf-syntax-ns#"
   xmlns:svg="http://www.w3.org/2000/svg"
   xmlns="http://www.w3.org/2000/svg"
   xmlns:sodipodi="http://sodipodi.sourceforge.net/DTD/sodipodi-0.dtd"
   xmlns:inkscape="http://www.inkscape.org/namespaces/inkscape"
   width="69.062447"
   height="139.23375"
   id="svg5489"
   version="1.1"
   inkscape:version="0.48.4 r9939"
   sodipodi:docname="New document 30">
  <defs
     id="defs5491" />
  <sodipodi:namedview
     id="base"
     pagecolor="#ffffff"
     bordercolor="#666666"
     borderopacity="1.0"
     inkscape:pageopacity="0.0"
     inkscape:pageshadow="2"
     inkscape:zoom="1.6404999"
     inkscape:cx="19.032788"
     inkscape:cy="49.786235"
     inkscape:document-units="px"
     inkscape:current-layer="layer1"
     showgrid="false"
     fit-margin-top="0"
     fit-margin-left="0"
     fit-margin-right="0"
     fit-margin-bottom="0"
     inkscape:window-width="1920"
     inkscape:window-height="998"
     inkscape:window-x="0"
     inkscape:window-y="30"
     inkscape:window-maximized="1" />
  <metadata
     id="metadata5494">
    <rdf:RDF>
      <cc:Work
         rdf:about="">
        <dc:format>image/svg+xml</dc:format>
        <dc:type
           rdf:resource="http://purl.org/dc/dcmitype/StillImage" />
        <dc:title></dc:title>
      </cc:Work>
    </rdf:RDF>
  </metadata>
  <g
     inkscape:label="Layer 1"
     inkscape:groupmode="layer"
     id="layer1"
     transform="translate(-344.74367,-724.60519)">
    <path
       inkscape:connector-curvature="0"
       style="font-size:144px;font-style:normal;font-variant:normal;font-weight:bold;font-stretch:normal;line-height:125%;letter-spacing:0px;word-spacing:0px;fill:#419bff;fill-opacity:1;stroke:none;font-family:Roboto;-inkscape-font-specification:Roboto Bold"
       d="m 369.61867,763.98178 0,10.0625 0,1.25 0,8.6875 c 0.16835,-0.21958 0.25941,-0.54341 0.4375,-0.75 1.21872,-1.40619 2.67184,-2.46869 4.3125,-3.21875 1.68746,-0.79681 3.60934,-1.21869 5.8125,-1.21875 2.34371,6e-5 4.37496,0.35943 6.0625,1.0625 1.47562,0.59829 2.65563,1.46335 3.65625,2.46875 l 0,-7.0625 0.0312,-1.21875 -0.0312,0 0,-10.40625 c -2.97787,-0.75215 -6.10715,-1.2812 -9.625,-1.28125 -3.83485,6e-5 -7.33437,0.6458 -10.65625,1.625 z"
       id="path4202-3-8" />
    <path
       inkscape:connector-curvature="0"
       style="font-size:144px;font-style:normal;font-variant:normal;font-weight:bold;font-stretch:normal;line-height:125%;letter-spacing:0px;word-spacing:0px;fill:#419bff;fill-opacity:1;stroke:none;font-family:Roboto;-inkscape-font-specification:Roboto Bold"
       d="m 389.93117,824.13803 c -1.94501,0.45031 -3.96243,0.71876 -6.09375,0.71875 -2.62504,1e-5 -4.98441,-0.3906 -7.09375,-1.1875 -2.10941,-0.79685 -3.96878,-1.90623 -5.5625,-3.3125 -0.56938,-0.53486 -1.06299,-1.13893 -1.5625,-1.75 l 0,2.71875 0,17.90625 c 3.94411,1.22932 8.18252,2 12.90625,2 2.63431,0 5.04903,-0.25298 7.375,-0.65625 l 0,-1.1875 0.0312,-15.25 z"
       id="path5267" />
    <path
       style="font-size:144px;font-style:normal;font-variant:normal;font-weight:bold;font-stretch:normal;line-height:125%;letter-spacing:0px;word-spacing:0px;fill:#808080;fill-opacity:1;stroke:none;font-family:Roboto;-inkscape-font-specification:Roboto Bold"
       d="m 366.20109,728.11863 c -0.41636,0.46914 -0.64081,0.96334 -0.64081,1.4805 0,1.34863 1.52059,2.57066 3.99957,3.46925 l 0,15.1586 -11.09274,0 0,14.93763 11.09274,0 0,12.94889 0,1.23744 0.0221,20.13044 -0.0221,4.48571 c -10e-6,0.50391 0.005,0.99416 0.0221,1.48051 l -0.0221,14.47359 0.0221,0.0221 0,5.43588 0,18.07542 0,2.34229 c -2e-5,4.03126 0.51554,7.48208 1.54679,10.34144 1.03124,2.85938 2.45601,5.15724 4.33103,6.93848 1.20985,1.12131 2.65947,1.98969 4.17635,2.71794 0.0298,0.0143 0.0586,0.03 0.0884,0.0442 l 0.0884,-0.0442 c 1.52282,-0.72935 2.96202,-1.59245 4.17635,-2.71794 1.87502,-1.78124 3.29979,-4.07909 4.33103,-6.93848 1.03126,-2.85936 1.54681,-6.31018 1.54679,-10.34144 l 0,-2.34229 0.0221,-20.43981 0,-3.09359 -0.0221,-18.27429 0.0221,-2.14342 -0.0221,-0.0221 0,-20.15254 0.0221,-1.21534 -0.0221,-0.0221 0,-12.94889 13.03728,0 0,-14.89344 -13.03728,0 0,-15.1144 c 2.57874,-0.90376 4.19845,-2.15645 4.19845,-3.53554 0,-2.75817 -6.40466,-4.99394 -14.27472,-4.99394 -6.39442,0 -11.7855,1.48049 -13.58971,3.51344 z"
       id="path3858-6-7-4-4"
       inkscape:connector-curvature="0" />
    <path
       inkscape:connector-curvature="0"
       style="font-size:144px;font-style:normal;font-variant:normal;font-weight:bold;font-stretch:normal;line-height:125%;letter-spacing:0px;word-spacing:0px;fill:#4d4d4d;fill-opacity:1;stroke:none;font-family:Roboto;-inkscape-font-specification:Roboto Bold"
       d="m 389.93117,824.13803 -0.0312,15.25 0,1.1875 c 0.94367,-0.16361 1.91958,-0.30126 2.8125,-0.53125 3.14057,-0.75 5.95307,-1.76562 8.4375,-3.03125 2.48431,-1.3125 4.64056,-2.76562 6.46875,-4.40625 1.82806,-1.64061 3.34368,-3.32811 4.5625,-5.0625 l -9.96875,-11.1875 c -2.25006,2.90628 -4.95318,5.06252 -8.09375,6.46875 -1.33305,0.57699 -2.75313,0.98041 -4.1875,1.3125 z"
       id="path5265" />
    <path
       inkscape:connector-curvature="0"
       style="font-size:144px;font-style:normal;font-variant:normal;font-weight:bold;font-stretch:normal;line-height:125%;letter-spacing:0px;word-spacing:0px;fill:#4d4d4d;fill-opacity:1;stroke:none;font-family:Roboto;-inkscape-font-specification:Roboto Bold"
       d="m 389.89992,794.54428 0,0.875 0.0312,0.0312 -0.0312,2.125 0.0312,10.84375 23.875,0 0,-8.65625 c -7e-5,-5.62495 -0.73445,-10.74995 -2.1875,-15.34375 -1.40632,-4.59369 -3.54694,-8.48431 -6.40625,-11.71875 -2.81256,-3.28118 -6.29693,-5.81242 -10.46875,-7.59375 -1.4959,-0.65547 -3.17912,-1.0483 -4.84375,-1.46875 l 0,10.40625 0.0312,0 -0.0312,1.21875 0,7.0625 c 0.17543,0.17627 0.40167,0.31121 0.5625,0.5 1.12495,1.26568 1.95307,2.76568 2.46875,4.5 0.56244,1.73443 0.85935,3.60943 0.90625,5.625 l 0,1.59375 -3.9375,0 z"
       id="path5263" />
    <path
       style="font-size:144px;font-style:normal;font-variant:normal;font-weight:bold;font-stretch:normal;line-height:125%;letter-spacing:0px;word-spacing:0px;fill:#4d4d4d;fill-opacity:1;stroke:none;font-family:Roboto;-inkscape-font-specification:Roboto Bold"
       d="m 366.98744,794.54428 0,0.875 0,4.5 c -10e-6,0.50391 -0.0221,0.9824 0,1.46875 l 0,7.03125 26.23553,0 -0.0404,-10.84375 0.0404,-2.125 -0.0404,-0.0312 0,-0.875 -26.19516,0 z"
       id="path5261"
       inkscape:connector-curvature="0" />
    <path
       inkscape:connector-curvature="0"
       style="font-size:144px;font-style:normal;font-variant:normal;font-weight:bold;font-stretch:normal;line-height:125%;letter-spacing:0px;word-spacing:0px;fill:#4d4d4d;fill-opacity:1;stroke:none;font-family:Roboto;-inkscape-font-specification:Roboto Bold"
       d="m 369.61867,763.98178 c -1.38831,0.40924 -2.82628,0.73224 -4.125,1.3125 -4.35939,1.92195 -8.09376,4.62507 -11.1875,8.09375 -3.04688,3.46881 -5.40626,7.60943 -7.09375,12.4375 -1.64063,4.7813 -2.46875,10.07817 -2.46875,15.84375 l 0,2.71875 c 0,5.10941 0.84375,9.93753 2.53125,14.4375 1.73437,4.45314 4.23436,8.32814 7.46875,11.65625 3.28123,3.32813 7.23435,5.95313 11.875,7.875 0.93853,0.3848 2.01261,0.56725 3,0.875 l 0,-17.90625 0,-2.71875 c -0.85758,-1.0491 -1.6296,-2.16376 -2.28125,-3.4375 -0.9844,-2.0156 -1.64065,-4.26559 -1.96875,-6.75 l 4.25,0 0,-7.03125 c -0.0171,-0.48635 -1e-5,-0.96484 0,-1.46875 l 0,-4.5 0,-0.875 -4.0625,0 c 0.3281,-2.3437 0.87498,-4.45307 1.625,-6.375 0.636,-1.62976 1.49807,-2.96218 2.4375,-4.1875 l 0,-8.6875 0,-1.25 0,-10.0625 z"
       id="path5259" />
  </g>
</svg>
